<svg data-v-423bf9ae="" xmlns="http://www.w3.org/2000/svg" viewBox="0 0 474 90" class="iconLeft"><!----><!----><!----><g data-v-423bf9ae="" id="7dcf368f-55e6-43b6-8c21-69e952f3f1f0" fill="#000000" transform="matrix(4.87408632031218,0,0,4.87408632031218,109.67978321974132,-6.49471897517585)"><path d="M2.44 10.18L3.99 10.18L6.37 14.35L7.69 14.35L5.19 10.12C6.75 9.97 7.60 8.96 7.60 7.39C7.60 5.63 6.62 4.58 4.82 4.58L1.26 4.58L1.26 14.35L2.44 14.35ZM2.44 9.18L2.44 5.60L4.79 5.60C5.77 5.60 6.36 6.12 6.36 7.03L6.36 7.76C6.36 8.67 5.77 9.18 4.79 9.18ZM12.60 14.52C14.98 14.52 16.02 12.66 16.02 9.46C16.02 6.27 14.98 4.41 12.60 4.41C10.22 4.41 9.18 6.27 9.18 9.46C9.18 12.66 10.22 14.52 12.60 14.52ZM12.60 13.50C11.05 13.50 10.43 12.22 10.43 10.26L10.43 8.67C10.43 6.71 11.05 5.43 12.60 5.43C14.15 5.43 14.77 6.71 14.77 8.67L14.77 10.26C14.77 12.22 14.15 13.50 12.60 13.50ZM23.17 14.35L24.25 14.35L24.25 4.58L22.79 4.58L21.07 8.89L20.99 8.89L19.26 4.58L17.75 4.58L17.75 14.35L18.83 14.35L18.83 9.45L18.83 6.36L18.94 6.36L21 11.38L23.06 6.36L23.17 6.36L23.17 9.45ZM31.57 14.35L32.65 14.35L32.65 4.58L31.19 4.58L29.47 8.89L29.39 8.89L27.66 4.58L26.15 4.58L26.15 14.35L27.23 14.35L27.23 9.45L27.23 6.36L27.34 6.36L29.40 11.38L31.46 6.36L31.57 6.36L31.57 9.45ZM40.88 14.35L40.88 13.33L36.04 13.33L36.04 9.91L40.71 9.91L40.71 8.89L36.04 8.89L36.04 5.60L40.88 5.60L40.88 4.58L34.86 4.58L34.86 14.35ZM49.56 16.72L49.56 15.68L42.84 15.68L42.84 16.72ZM56.01 14.35L57.68 14.35L57.68 4.58L56.62 4.58L56.62 12.77L56.52 12.77L53.19 4.58L51.52 4.58L51.52 14.35L52.58 14.35L52.58 6.08L52.68 6.08ZM63.13 14.52C64.55 14.52 65.59 13.82 66.02 12.85L65.20 12.29C64.82 13.08 64.09 13.55 63.13 13.55C61.77 13.55 60.91 12.63 60.91 11.35L60.91 11.02L66.26 11.02L66.26 10.49C66.26 8.44 65.00 6.96 63.06 6.96C61.10 6.96 59.74 8.44 59.74 10.75C59.74 13.03 61.05 14.52 63.13 14.52ZM63.06 7.88C64.25 7.88 65.06 8.75 65.06 10.02L65.06 10.18L60.91 10.18L60.91 10.08C60.91 8.82 61.82 7.88 63.06 7.88ZM74.56 14.35L74.56 13.40L71.27 13.40L71.27 8.08L74.56 8.08L74.56 7.13L71.27 7.13L71.27 4.58L70.20 4.58L70.20 6.47C70.20 6.96 70.01 7.13 69.54 7.13L67.75 7.13L67.75 8.08L70.15 8.08L70.15 12.70C70.15 13.66 70.66 14.35 71.75 14.35Z"></path></g><defs data-v-423bf9ae=""><linearGradient data-v-423bf9ae="" gradientTransform="rotate(25)" id="7f0a6f99-3e35-43d3-8d00-fd90600f615d" x1="0%" y1="0%" x2="100%" y2="0%"><stop data-v-423bf9ae="" offset="0%" style="stop-color: rgb(0, 118, 221); stop-opacity: 1;"></stop><stop data-v-423bf9ae="" offset="100%" style="stop-color: rgb(0, 205, 233); stop-opacity: 1;"></stop></linearGradient></defs><g data-v-423bf9ae="" id="7fc66176-4013-4dc6-ab12-8c06ad027218" transform="matrix(2.994410458179972,0,0,2.994410458179972,0.08943266912044834,-1.9385669710569857)" stroke="none" fill="url(#7f0a6f99-3e35-43d3-8d00-fd90600f615d)"><path d="M17.572 23.933l4.106 7.095L32 13.189h-8.981V7.582L11.51.972 0 7.582v13.222l11.51 6.611 6.062-3.482zm10.96-8.744l-6.855 11.846-6.855-11.846h13.71z"></path></g><!----></svg>